Coordinates
version=1
nRows=6
nColumns=63
inDegrees=yes

Units are S.I. units (second, meters, Newtons, ...)
If the header above contains a line with 'inDegrees', this indicates whether rotational values are in degrees (yes) or radians (no).

endheader
time	pelvis_tilt	pelvis_list	pelvis_rotation	pelvis_tx	pelvis_ty	pelvis_tz	hip_flexion_r	hip_adduction_r	hip_rotation_r	knee_angle_r	knee_angle_r_beta	ankle_angle_r	subtalar_angle_r	mtp_angle_r	hip_flexion_l	hip_adduction_l	hip_rotation_l	knee_angle_l	knee_angle_l_beta	ankle_angle_l	subtalar_angle_l	mtp_angle_l	L5_S1_Flex_Ext	L5_S1_Lat_Bending	L5_S1_axial_rotation	L4_L5_Flex_Ext	L4_L5_Lat_Bending	L4_L5_axial_rotation	L3_L4_Flex_Ext	L3_L4_Lat_Bending	L3_L4_axial_rotation	L2_L3_Flex_Ext	L2_L3_Lat_Bending	L2_L3_axial_rotation	L1_L2_Flex_Ext	L1_L2_Lat_Bending	L1_L2_axial_rotation	L1_T12_Flex_Ext	L1_T12_Lat_Bending	L1_T12_axial_rotation	Abs_r3	Abs_r2	Abs_r1	Abs_t1	Abs_t2	neck_flexion	neck_bending	neck_rotation	arm_flex_r	arm_add_r	arm_rot_r	elbow_flex_r	pro_sup_r	wrist_flex_r	wrist_dev_r	arm_flex_l	arm_add_l	arm_rot_l	elbow_flex_l	pro_sup_l	wrist_flex_l	wrist_dev_l
      5.20338983	     -6.94899501	     -2.48882362	     83.99348889	      0.28167421	      0.77054283	      0.70003465	     15.93991311	      1.37260509	     15.52991648	     25.24099309	      0.44053844	     30.48050166	    -14.59313613	      0.00000000	     11.05788389	     -0.27681833	    -13.71680730	     21.82642796	      0.38094303	     30.73601875	      1.82365949	      0.00000000	      0.03019056	     -0.24582258	      1.34172359	      0.05606689	     -0.32694403	      1.42558131	      0.04960007	     -0.59769302	      1.42558131	      0.03450479	     -0.59769302	      1.17400814	      0.02803495	     -0.50128140	      1.09015042	      0.01725089	     -0.38077917	      1.00629269	      0.21564815	     -2.78079416	      7.46226409	      0.00000000	      0.00000000	     17.12169267	      6.73790726	    -19.25597921	    127.46759935	    -48.73866843	     56.44800960	     68.30297337	     72.53050961	     -0.90913591	     -0.72835661	    106.26392582	     15.31938649	    158.88957663	      0.33806419	      3.29424145	    -33.08796390	    -23.38783198
      5.22033898	     -7.09561698	     -3.04707611	     84.07393790	      0.27997941	      0.76962239	      0.70115365	     16.69006829	      1.12420515	     15.27392198	     25.45527473	      0.44427836	     30.53067492	    -14.39901874	      0.00000000	     11.94074940	      0.02719672	    -12.77651040	     22.20230805	      0.38750338	     30.39869452	      0.81815057	      0.00000000	      0.07089212	     -0.25625168	      1.17508711	      0.13165376	     -0.34081474	      1.24853006	      0.11646866	     -0.62305034	      1.24853006	      0.08102260	     -0.62305034	      1.02820122	      0.06583042	     -0.52254843	      0.95475828	      0.04050776	     -0.39693385	      0.88131533	      0.50637533	     -2.89877027	      6.53548199	      0.00000000	      0.00000000	     16.13596836	      6.70812655	    -20.10534885	    125.76458488	    -47.84880729	     53.56789875	     68.33121752	     71.10719161	      0.29197912	      0.38551135	    105.42184058	     20.54979091	    164.23025803	      0.33906615	      4.02608868	    -41.81137826	    -22.64560498
      5.23728814	     -7.33094369	     -3.58593213	     84.14680201	      0.27845193	      0.76846850	      0.70255226	     17.47874432	      0.80745293	     15.06712253	     25.72410768	      0.44897038	     30.73795956	    -14.16673848	      0.00000000	     12.86533485	      0.36670350	    -12.04337862	     22.63469717	      0.39504999	     30.18769410	      0.20165677	      0.00000000	      0.09374134	     -0.27579042	      0.91018672	      0.17408704	     -0.36680126	      0.96707339	      0.15400764	     -0.67055683	      0.96707339	      0.10713698	     -0.67055683	      0.79641338	      0.08704821	     -0.56239182	      0.73952671	      0.05356380	     -0.42719936	      0.68264004	      0.66958500	     -3.11979638	      5.06218551	      0.00000000	      0.00000000	     15.64236396	      6.52553979	    -21.31623230	    124.08710649	    -46.54297729	     50.70897474	     68.06166867	     69.69212970	      1.66489079	      1.34124168	    104.68064443	     25.10890006	    167.21223397	      0.34837765	      4.88166752	    -46.78813909	    -21.87101377
      5.25423729	     -7.61153526	     -4.08415986	     83.69633635	      0.27732303	      0.76677716	      0.70441369	     18.32070261	      0.62944311	     15.58864789	     26.03297235	      0.45436108	     31.13074732	    -14.01831433	      0.00000000	     13.75549023	      0.59682794	    -12.06305407	     23.09383619	      0.40306348	     30.35003046	      0.09338460	      0.00000000	      0.10510042	     -0.27874575	      0.68861032	      0.19518199	     -0.37073185	      0.73164846	      0.17266948	     -0.67774242	      0.73164846	      0.12011927	     -0.67774242	      0.60253403	      0.09759625	     -0.56841834	      0.55949588	      0.06005438	     -0.43177717	      0.51645774	      0.75072177	     -3.15322769	      3.82984401	      0.00000000	      0.00000000	     15.66617598	      6.58898159	    -21.12775506	    123.78737844	    -44.93910551	     50.16957157	     67.22762017	     69.45314749	      1.60285732	      1.46752074	    104.05123267	     28.86588329	    167.40491562	      0.35795406	      4.98696108	    -46.70148057	    -21.43786625
      5.27118644	     -8.15447508	     -4.49129455	     83.63370369	      0.27644528	      0.76504829	      0.70691418	     19.33161289	      0.08562470	     15.48041634	     26.76708095	      0.46717369	     31.60360707	    -13.61770451	      0.00000000	     14.79824794	      1.17595562	    -11.53136316	     23.76566193	      0.41478905	     30.33904050	     -0.73712139	      0.00000000	      0.11404985	     -0.33329251	      0.32545548	      0.21180197	     -0.44327904	      0.34579644	      0.18737249	     -0.81036742	      0.34579644	      0.13034757	     -0.81036742	      0.28477354	      0.10590669	     -0.67965010	      0.26443257	      0.06516808	     -0.51627010	      0.24409161	      0.81464665	     -3.77027158	      1.81008572	      0.00000000	      0.00000000	     15.53045575	      7.94971421	    -20.48047022	    121.26410520	    -42.37354007	     45.65633872	     65.76132406	     71.02630080	      4.02484245	      1.82754138	    103.30675244	     31.85639483	    162.36251310	      0.36373993	      3.57846386	    -38.26764451	    -21.55033786
      5.28813559	     -8.70765659	     -4.92900333	     83.37154487	      0.27579139	      0.76264404	      0.70956089	     20.41086814	     -0.34714037	     15.75927007	     27.51734547	      0.48026828	     32.26365409	    -13.32385352	      0.00000000	     15.90619413	      1.61382912	    -11.57244982	     24.52688300	      0.42807486	     30.67410471	     -0.93158410	      0.00000000	      0.11486499	     -0.38551694	     -0.06320711	      0.21331578	     -0.51273753	     -0.06715755	      0.18871170	     -0.93734589	     -0.06715755	      0.13127920	     -0.93734589	     -0.05530622	      0.10666363	     -0.78614615	     -0.05135578	      0.06563386	     -0.59716574	     -0.04740533	      0.82046915	     -4.36104474	     -0.35153898	      0.00000000	      0.00000000	     15.87606851	      9.59566818	    -19.86874108	    120.52426024	    -39.99811437	     44.63185730	     63.90032598	     71.17003229	      4.19557123	      0.58924821	    103.14386222	     33.01427610	    122.45251528	      1.11871882	      1.23718922	     15.85575279	    -23.45014660
